<svg viewbox="0 0 24 24" width="1.5em" fill="currentColor" class="ml-1">
    <path
        d="M6.75 21C4.682 21 3 18.982 3 16.5a.75.75 0 0 1 .75-.75H6l.006-11.146a.75.75 0 0 1 .011-.264C6.19 3.563 6.904 3 7.714 3a1.74 1.74 0 0 1 1.698 1.34c.016.077.11.16.23.16.124 0 .215-.082.232-.16.173-.777.887-1.34 1.698-1.34.81 0 1.524.563 1.696 1.34.018.077.111.16.232.16.12 0 .214-.083.232-.16.172-.777.886-1.34 1.696-1.34.811 0 1.525.563 1.697 1.34.018.078.11.16.232.16.121 0 .215-.083.231-.16A1.74 1.74 0 0 1 19.285 3a1.74 1.74 0 0 1 1.686 1.295.752.752 0 0 1 .029.203V18.75a2.253 2.253 0 0 1-2.118 2.246L18.75 21h-12ZM19.285 4.5c-.122 0-.214.083-.232.165C18.881 5.439 18.168 6 17.357 6c-.81 0-1.524-.561-1.696-1.335-.018-.082-.11-.165-.233-.165-.122 0-.214.083-.232.165C15.024 5.439 14.312 6 13.5 6c-.81 0-1.523-.561-1.697-1.335-.017-.082-.109-.165-.231-.165-.122 0-.215.083-.233.165C11.167 5.439 10.453 6 9.643 6c-.811 0-1.524-.561-1.696-1.335-.018-.082-.11-.165-.233-.165-.094 0-.17.05-.208.11L7.5 15.75h8.249a.75.75 0 0 1 .75.75c0 1.6.943 2.91 2.127 2.996l.123.004a.75.75 0 0 0 .75-.75V4.62a.245.245 0 0 0-.215-.12Zm-4.233 12.75H4.571c.25 1.293 1.133 2.25 2.179 2.25h9.207a4.891 4.891 0 0 1-.905-2.25Zm-1.556-6a.75.75 0 1 1 0 1.5H9.75a.75.75 0 1 1 0-1.5h3.747Zm3.754-3a.75.75 0 1 1 0 1.5H9.748a.75.75 0 1 1 0-1.5h7.502Z"
        fill-rule="evenodd"></path>
</svg>